<?xml version="1.0" encoding="UTF-8"?>
<svg xmlns="http://www.w3.org/2000/svg" width="22" height="22" viewBox="0 0 22 22">
  <g transform="scale(1.076416 1.076416) translate(0.0 0.017384)">
    <path d="M17.7682 1.73468C18.1773 1.85924 18.4976 2.17946 18.6221 2.58863C18.7354 2.9606 18.613 3.30964 18.5518 3.47501C18.4793 3.67136 18.3666 3.91113 18.2455 4.16868L16.7034 7.45018L19.1841 10.0946C19.3788 10.3021 19.5601 10.4953 19.6898 10.6596C19.799 10.798 20.0233 11.0921 20.0305 11.4809C20.0385 11.9085 19.8329 12.312 19.4822 12.5569C19.1635 12.7796 18.7937 12.771 18.6175 12.764C18.4084 12.7557 18.1456 12.7226 17.8633 12.687L14.2657 12.2344L12.5173 15.4109C12.3801 15.6602 12.2524 15.8923 12.1362 16.0664C12.0383 16.213 11.8279 16.5172 11.4604 16.6442C11.0562 16.784 10.6089 16.7131 10.2676 16.4553C9.95738 16.221 9.85124 15.8666 9.80348 15.6969C9.74678 15.4954 9.69702 15.2352 9.64357 14.9556L9.17714 12.5173L3.47378 18.4799C3.29276 18.6692 3.20225 18.7638 3.09661 18.7999C3.00372 18.8317 2.90307 18.8328 2.80949 18.8031C2.70307 18.7693 2.61048 18.6767 2.4253 18.4916L1.86524 17.9315C1.68006 17.7463 1.58747 17.6537 1.55367 17.5473C1.52395 17.4537 1.52507 17.3531 1.55686 17.2602C1.59301 17.1545 1.68764 17.064 1.87689 16.883L7.83949 11.1797L5.40121 10.7132C5.12173 10.6598 4.86135 10.61 4.65988 10.5533C4.49017 10.5056 4.13584 10.3994 3.90148 10.0892C3.64367 9.7479 3.57282 9.30061 3.71255 8.89637C3.83958 8.52888 4.14377 8.31845 4.29041 8.22059C4.46453 8.10439 4.69664 7.97666 4.94596 7.83945L8.12237 6.09108L7.66979 2.49366C7.63424 2.2113 7.60115 1.94843 7.59281 1.73927C7.58579 1.56311 7.57723 1.19332 7.79987 0.874556C8.04478 0.523904 8.44828 0.318309 8.87592 0.326283C9.26467 0.333532 9.5588 0.557805 9.6972 0.667031C9.86151 0.796715 10.0547 0.977991 10.2622 1.17271L12.9066 3.65339L16.1881 2.11129C16.4457 1.99022 16.6854 1.87752 16.8818 1.80496C17.0472 1.74384 17.3962 1.62144 17.7682 1.73468Z" fill="rgba(250,250,250,1.0)"/>
    <path d="M3.79307 0.13042C3.27362 0.430327 3.14778 1.12489 3.52901 1.58797L6.19895 4.83122C6.283 4.93331 6.42854 4.95968 6.54307 4.89356C6.65759 4.82744 6.70753 4.68821 6.66114 4.56438L5.18738 0.63051C4.97695 0.0688199 4.31252 -0.169486 3.79307 0.13042Z" fill="rgba(250,250,250,1.0)"/>
    <path d="M20.3078 16.6451C20.0079 17.1646 19.3133 17.2904 18.8502 16.9092L15.607 14.2392C15.5049 14.1552 15.4785 14.0096 15.5446 13.8951C15.6107 13.7806 15.75 13.7306 15.8738 13.777L19.8077 15.2508C20.3694 15.4612 20.6077 16.1257 20.3078 16.6451Z" fill="rgba(250,250,250,1.0)"/>
    <path d="M14.8129 20.3968C14.2185 20.4776 13.6938 20.0054 13.7118 19.4059L13.8378 15.2069C13.8418 15.0747 13.9407 14.9648 14.0717 14.947C14.2028 14.9292 14.3275 15.0087 14.3666 15.135L15.6093 19.1479C15.7867 19.7208 15.4072 20.316 14.8129 20.3968Z" fill="rgba(250,250,250,1.0)"/>
    <path d="M0.999953 6.69403C0.400411 6.71201 -0.07179 6.18735 0.00903247 5.593C0.0898561 4.99866 0.685014 4.61914 1.25798 4.79657L5.27084 6.03924C5.39717 6.07836 5.47669 6.20307 5.45887 6.33411C5.44105 6.46515 5.33111 6.56409 5.19893 6.56806L0.999953 6.69403Z" fill="rgba(250,250,250,1.0)"/>
  </g>
</svg>
