<?xml version="1.0" encoding="UTF-8"?>
<svg xmlns="http://www.w3.org/2000/svg" width="24" height="24" viewBox="0 0 24 24">
  <g transform="scale(1.000013 1.000013) translate(4.5 4.5)">
    <path d="M13.4394 0.146333C13.6347 -0.0486961 13.9513 -0.0488512 14.1464 0.146333L14.8535 0.853365C15.0487 1.04855 15.0485 1.36512 14.8535 1.5604L8.91402 7.49985L14.8535 13.4393C15.0487 13.6345 15.0486 13.9511 14.8535 14.1463L14.1464 14.8534C13.9512 15.0486 13.6347 15.0486 13.4394 14.8534L7.49996 8.91391L1.56051 14.8534C1.36525 15.0486 1.04874 15.0486 0.853478 14.8534L0.146447 14.1463C-0.0488156 13.9511 -0.0488154 13.6346 0.146447 13.4393L6.0859 7.49985L0.146447 1.5604C-0.0487472 1.36513 -0.0487928 1.0486 0.146447 0.853365L0.853478 0.146333C1.04873 -0.0487484 1.36529 -0.0488072 1.56051 0.146333L7.49996 6.08579L13.4394 0.146333Z" fill="rgba(246,246,246,1.0)"/>
  </g>
</svg>
