<?xml version="1.0" encoding="UTF-8"?>
<svg xmlns="http://www.w3.org/2000/svg" width="16" height="16" viewBox="0 0 16 16">
  <g transform="scale(1.091837 1.091837) translate(0.0 1.812941)">
    <path d="M13.1287 5.57153C13.1493 5.63352 13.1493 5.69981 13.1287 5.7618C12.9159 6.40266 12.3946 7.39239 11.5194 8.26763C10.5105 9.27658 9.13361 10.0381 7.32709 10.0381C5.52058 10.0381 4.14373 9.27658 3.13477 8.26763C2.25954 7.39239 1.73825 6.40266 1.52548 5.7618C1.5049 5.69981 1.5049 5.63352 1.52548 5.57153C1.73825 4.93067 2.25954 3.94094 3.13477 3.06571C4.14373 2.05675 5.52058 1.29524 7.32709 1.29524C9.13361 1.29524 10.5105 2.05675 11.5194 3.06571C12.3946 3.94094 12.9159 4.93067 13.1287 5.57153ZM7.32709 11.3333C11.9356 11.3333 14.2685 7.43247 14.647 5.73009C14.6566 5.68713 14.6566 5.6462 14.647 5.60324C14.2685 3.90086 11.9356 0 7.32709 0C2.71862 0 0.385649 3.90086 0.00716332 5.60324C-0.00238782 5.6462 -0.00238775 5.68713 0.0071634 5.73009C0.385649 7.43247 2.71862 11.3333 7.32709 11.3333Z" fill="rgba(0,0,0,1.0)"/>
    <path d="M7.32709 6.73809C6.73536 6.73809 6.25566 6.2584 6.25566 5.66667C6.25566 5.07493 6.73536 4.59524 7.32709 4.59524C7.91883 4.59524 8.39852 5.07493 8.39852 5.66667C8.39852 6.2584 7.91883 6.73809 7.32709 6.73809ZM7.32709 8.16667C8.70781 8.16667 9.82709 7.04738 9.82709 5.66667C9.82709 4.28595 8.70781 3.16667 7.32709 3.16667C5.94638 3.16667 4.82709 4.28595 4.82709 5.66667C4.82709 7.04738 5.94638 8.16667 7.32709 8.16667Z" fill="rgba(0,0,0,1.0)"/>
  </g>
</svg>
