<?xml version="1.0" encoding="UTF-8"?>
<svg xmlns="http://www.w3.org/2000/svg" width="32" height="32" viewBox="0 0 32 32">
  <g transform="scale(1.057407 1.057407) translate(0.0 2.372822)">
    <path d="M15.5029 0C16.3124 1.65222e-09 16.7174 0.000132505 17.1084 0.0517578C17.9503 0.162975 18.7594 0.451415 19.4814 0.898438C19.8169 1.10616 20.1309 1.36304 20.7578 1.87598L21.4375 2.43262C21.8915 2.80403 22.4375 3.04572 23.0176 3.13281L24.4726 3.35156C27.0714 3.7416 29.152 5.7098 29.6845 8.2832C30.4199 11.8376 30.454 15.5018 29.7851 19.0693L29.6963 19.5439C29.1591 22.4087 26.8615 24.6168 23.9775 25.0391L22.7304 25.2217C17.6912 25.9591 12.5714 25.9591 7.5322 25.2217L6.28611 25.0391C3.40197 24.617 1.10356 22.4089 0.566383 19.5439L0.477516 19.0693C-0.19135 15.5018 -0.157295 11.8376 0.578101 8.2832C1.11067 5.70962 3.19195 3.74142 5.79099 3.35156L7.24509 3.13281C7.82517 3.04574 8.37115 2.80402 8.82517 2.43262L9.50584 1.87598C10.1327 1.36312 10.4458 1.10614 10.7812 0.898438C11.5033 0.451387 12.3123 0.162979 13.1543 0.0517578C13.5454 0.000109009 13.9508 0 14.7607 0H15.5029ZM15.1318 7C11.4499 7 8.46482 9.98509 8.46482 13.667C8.465 17.3487 11.45 20.333 15.1318 20.333C18.8134 20.3328 21.7976 17.3486 21.7978 13.667C21.7978 9.98524 18.8135 7.00023 15.1318 7ZM15.1318 9.66699C17.3408 9.66723 19.1318 11.458 19.1318 13.667C19.1316 15.8758 17.3406 17.6668 15.1318 17.667C12.9228 17.667 11.132 15.876 11.1318 13.667C11.1318 11.4579 12.9227 9.66699 15.1318 9.66699Z" fill="rgba(246,246,246,1.0)"/>
  </g>
</svg>
