<?xml version="1.0" encoding="UTF-8"?>
<svg xmlns="http://www.w3.org/2000/svg" width="24" height="24" viewBox="0 0 24 24">
  <g transform="scale(1.057436 1.057436) translate(0.0 1.779454)">
    <path d="M11.6268 0C12.2339 7.53084e-10 12.5376 0.000347237 12.8309 0.0390625C13.4623 0.12248 14.0696 0.338527 14.6111 0.673828C14.8627 0.829586 15.0972 1.02268 15.5672 1.40723L16.0779 1.82422C16.4185 2.10286 16.8283 2.28433 17.2635 2.34961L18.3533 2.51367C20.3027 2.80607 21.8631 4.28262 22.2625 6.21289C22.814 8.87857 22.8403 11.6262 22.3387 14.3018L22.2713 14.6582C21.8684 16.8069 20.1453 18.4627 17.9822 18.7793L17.0477 18.916C13.2681 19.4691 9.42778 19.4691 5.64825 18.916L4.71368 18.7793C2.55069 18.4627 0.827482 16.8068 0.424616 14.6582L0.35821 14.3018C-0.143392 11.6262 -0.118082 8.87857 0.433405 6.21289C0.832768 4.28263 2.39326 2.80609 4.34258 2.51367L5.43341 2.34961C5.86856 2.2843 6.27839 2.10286 6.61895 1.82422L7.12872 1.40723C7.59891 1.02252 7.83413 0.82962 8.08575 0.673828C8.6272 0.338616 9.23371 0.122488 9.86505 0.0390625C10.1584 0.000303771 10.4626 0 11.0701 0H11.6268ZM11.3484 5.25C8.58702 5.25 6.34844 7.48858 6.34844 10.25C6.34844 13.0114 8.58702 15.25 11.3484 15.25C14.1098 15.2499 16.3484 13.0113 16.3484 10.25C16.3484 7.48866 14.1098 5.25014 11.3484 5.25ZM11.3484 7.25C13.0052 7.25014 14.3484 8.59323 14.3484 10.25C14.3484 11.9068 13.0052 13.2499 11.3484 13.25C9.69159 13.25 8.34844 11.9069 8.34844 10.25C8.34844 8.59315 9.69159 7.25 11.3484 7.25Z" fill="rgba(246,246,246,1.0)"/>
  </g>
</svg>
