<?xml version="1.0" encoding="UTF-8"?>
<svg xmlns="http://www.w3.org/2000/svg" width="16" height="16" viewBox="0 0 16 16">
  <g transform="scale(0.974951 0.974951) translate(1.5 1.5)">
    <path d="M9.47461 0C9.90959 0 10.1273 0.000664998 10.3232 0.0625C10.4966 0.117227 10.6575 0.206234 10.7949 0.325195C10.9502 0.459623 11.0641 0.645267 11.292 1.01562L12.9385 3.69043C13.0857 3.92962 13.1589 4.04968 13.2109 4.17773C13.2571 4.2914 13.2903 4.41023 13.3105 4.53125C13.3333 4.66748 13.334 4.80827 13.334 5.08887V10.1338C13.334 11.2537 13.3331 11.8134 13.1152 12.2412C12.9235 12.6175 12.6175 12.9235 12.2412 13.1152C11.8134 13.3331 11.2537 13.334 10.1338 13.334H3.2002C2.08032 13.334 1.52056 13.3331 1.09277 13.1152C0.716449 12.9235 0.410497 12.6175 0.21875 12.2412C0.000854456 11.8134 3.30746e-10 11.2537 0 10.1338V5.04785C0 4.78207 4.30717e-05 4.64895 0.0205078 4.51953C0.0387042 4.40457 0.0696419 4.29129 0.111328 4.18262C0.158268 4.06041 0.224721 3.94486 0.357422 3.71484L1.88477 1.06738C2.10899 0.678731 2.22101 0.484132 2.37793 0.342773C2.51679 0.217705 2.68067 0.123196 2.8584 0.0654297C3.05925 0.000191399 3.28372 0 3.73242 0H9.47461ZM1.33398 5.33398V10.1338C1.33398 10.7158 1.33466 11.0723 1.35645 11.3389C1.36659 11.463 1.37891 11.5384 1.38965 11.584C1.39474 11.6056 1.39977 11.6188 1.40234 11.626C1.4048 11.6328 1.40625 11.6367 1.40625 11.6367C1.47013 11.7619 1.57205 11.8639 1.69727 11.9277C1.69727 11.9277 1.70115 11.9292 1.70801 11.9316C1.71521 11.9342 1.72841 11.9392 1.75 11.9443C1.79561 11.9551 1.87103 11.9674 1.99512 11.9775C2.26171 11.9993 2.61822 12 3.2002 12H10.1338C10.7158 12 11.0723 11.9993 11.3389 11.9775C11.463 11.9674 11.5384 11.9551 11.584 11.9443C11.6056 11.9392 11.6188 11.9342 11.626 11.9316C11.6303 11.9301 11.6332 11.9294 11.6348 11.9287L11.6367 11.9277C11.7619 11.8639 11.8639 11.7619 11.9277 11.6367L11.9287 11.6348C11.9294 11.6332 11.9301 11.6303 11.9316 11.626C11.9342 11.6188 11.9392 11.6056 11.9443 11.584C11.9551 11.5384 11.9674 11.463 11.9775 11.3389C11.9993 11.0723 12 10.7158 12 10.1338V5.33398H1.33398ZM8.4668 6.66699C8.65344 6.66699 8.74706 6.66682 8.81836 6.70312C8.88097 6.73503 8.9319 6.78607 8.96387 6.84863C9.00019 6.91992 9 7.0136 9 7.2002V7.4668C9 7.65348 9.0002 7.74706 8.96387 7.81836C8.93192 7.88102 8.88102 7.93192 8.81836 7.96387C8.74706 8.0002 8.65348 8 8.4668 8H4.86719C4.6805 8 4.58693 8.0002 4.51562 7.96387C4.45297 7.93192 4.40206 7.88102 4.37012 7.81836C4.33379 7.74706 4.33398 7.65348 4.33398 7.4668V7.2002C4.33398 7.0136 4.33379 6.91992 4.37012 6.84863C4.40209 6.78607 4.45302 6.73503 4.51562 6.70312C4.58692 6.66682 4.68055 6.66699 4.86719 6.66699H8.4668ZM3.73242 1.33398C3.4927 1.33398 3.36997 1.33457 3.28125 1.33984H3.27441L3.26953 1.3457C3.22064 1.4199 3.15881 1.52584 3.03906 1.7334L1.73242 4H11.5625L10.1562 1.71484C10.0346 1.51715 9.97202 1.41614 9.92285 1.3457L9.91895 1.33984L9.91113 1.33887C9.82538 1.33391 9.70667 1.33398 9.47461 1.33398H3.73242Z" fill="rgba(255,255,255,0.8784313725490196)"/>
  </g>
</svg>
