<?xml version="1.0" encoding="UTF-8"?>
<svg xmlns="http://www.w3.org/2000/svg" width="60.0" height="60.0" viewBox="0 0 60.0 60.0">
  <path d="M30 13C27.2043 13 24.4518 13.6895 21.9863 15.0073C19.5207 16.3252 17.4182 18.2308 15.865 20.5553C14.3118 22.8798 13.3559 25.5515 13.0819 28.3337C12.8078 31.1159 13.2242 33.9228 14.294 36.5056C15.3639 39.0885 17.0542 41.3676 19.2153 43.1412C21.3764 44.9147 23.9415 46.1279 26.6835 46.6733C29.4254 47.2188 32.2596 47.0795 34.9348 46.268C37.6101 45.4564 40.044 43.9976 42.0208 42.0208L30 30L30 13Z" fill="rgba(0,0,0,0.5)"/>
  <path d="M44 0C49.6005 0 52.4009 -9.10931e-05 54.54 1.08984C56.4216 2.04857 57.9514 3.5784 58.9102 5.45996C60.0001 7.59908 60 10.3995 60 16V44C60 49.6005 60.0001 52.4009 58.9102 54.54C57.9514 56.4216 56.4216 57.9514 54.54 58.9102C52.4009 60.0001 49.6005 60 44 60H16C10.3995 60 7.59908 60.0001 5.45996 58.9102C3.5784 57.9514 2.04857 56.4216 1.08984 54.54C-9.1039e-05 52.4009 0 49.6005 0 44V16C0 10.3995 -9.10931e-05 7.59908 1.08984 5.45996C2.04857 3.5784 3.5784 2.04857 5.45996 1.08984C7.59908 -9.1039e-05 10.3995 0 16 0H44ZM30 10C18.9543 10 10 18.9543 10 30C10 41.0457 18.9543 50 30 50C41.0457 50 50 41.0457 50 30C50 18.9543 41.0457 10 30 10Z" fill="rgba(0,0,0,0.5)"/>
</svg>
