<?xml version="1.0" encoding="UTF-8"?>
<svg xmlns="http://www.w3.org/2000/svg" width="20.0" height="20.0" viewBox="0 0 20.0 20.0">
  <path d="M13.83 4.99036C13.9928 4.82771 14.2572 4.82766 14.4199 4.99036L15.0088 5.5802C15.1712 5.74292 15.1713 6.00642 15.0088 6.16907L11.1787 9.99915L15.0088 13.8292C15.1715 13.9919 15.1715 14.2564 15.0088 14.4191L14.4199 15.0079C14.2572 15.1707 13.9928 15.1707 13.83 15.0079L9.99997 11.1779L6.16989 15.0079C6.00724 15.1706 5.74376 15.1704 5.58102 15.0079L4.99118 14.4191C4.82846 14.2564 4.82846 13.9919 4.99118 13.8292L8.82126 9.99915L4.99118 6.16907C4.82864 6.00643 4.82874 5.74291 4.99118 5.5802L5.58102 4.99036C5.74374 4.82802 6.00728 4.82785 6.16989 4.99036L9.99997 8.82044L13.83 4.99036Z" fill="rgba(255,255,255,1.0)"/>
</svg>
