<?xml version="1.0" encoding="UTF-8"?>
<svg xmlns="http://www.w3.org/2000/svg" width="26.8003" height="28.0" viewBox="0 0 26.8003 28.0">
  <path d="M21.1668 5.64569C21.357 5.83442 21.7257 6.00636 22.281 6.15077C23.4052 6.44313 24.5968 6.45421 25.7106 6.78526C25.9392 6.85321 26.1842 6.94758 26.3824 7.09453C26.5935 7.25103 26.8003 7.50872 26.8003 7.875C26.8003 8.23956 26.5953 8.49672 26.3849 8.65333C26.1877 8.80019 25.9439 8.89439 25.7169 8.96214C24.6042 9.29416 23.4131 9.30461 22.2902 9.59954C21.7318 9.74621 21.3608 9.92141 21.1696 10.1148L21.1651 10.1193C20.9717 10.3106 20.7965 10.6815 20.6499 11.2399C20.3549 12.3628 20.3445 13.5539 20.0125 14.6666C19.9447 14.8936 19.8505 15.1374 19.7036 15.3346C19.547 15.545 19.2899 15.75 18.9253 15.75C18.5596 15.75 18.3021 15.5438 18.1456 15.3328C17.9988 15.1349 17.9047 14.8903 17.8371 14.6623C17.5067 13.5488 17.497 12.3576 17.2047 11.2338C17.06 10.6774 16.8872 10.308 16.6971 10.1176C16.5022 9.92412 16.1284 9.74963 15.5702 9.60346C14.4448 9.3088 13.2514 9.29671 12.1366 8.96385C11.9087 8.89581 11.6644 8.80135 11.4667 8.65436C11.2561 8.49774 11.0503 8.24033 11.0503 7.875C11.0503 7.50825 11.2578 7.25051 11.469 7.09419C11.6674 6.94735 11.9127 6.85304 12.1416 6.78512C13.2579 6.45398 14.4519 6.44286 15.5786 6.15061C16.1332 6.00675 16.5033 5.8354 16.696 5.64679C16.8855 5.45222 17.057 5.08055 17.2008 4.52599C17.3409 3.98558 17.4328 3.36604 17.5238 2.74768L17.5287 2.71411C17.6134 2.13855 17.7011 1.54274 17.8354 1.0906C17.9033 0.861794 17.9977 0.616598 18.1446 0.418271C18.3011 0.207058 18.5588 0 18.9253 0C19.2909 0 19.5483 0.206235 19.7048 0.41684C19.8517 0.614562 19.9461 0.858988 20.0141 1.08698C20.1485 1.53742 20.2366 2.13106 20.3217 2.70467L20.3267 2.73826C20.4188 3.35849 20.5117 3.98021 20.6536 4.52215C20.7999 5.08052 20.9743 5.4528 21.1668 5.64569ZM6.65175 9.60593C6.59502 9.66205 6.51082 9.81221 6.43097 10.1162C6.26497 10.7482 6.2587 11.4167 6.07173 12.0433C6.03077 12.1806 5.96767 12.351 5.85872 12.4973C5.74001 12.6568 5.52756 12.8333 5.21698 12.8333C4.90541 12.8333 4.69273 12.6557 4.57421 12.4959C4.46537 12.3492 4.40239 12.1783 4.36151 12.0406C4.17542 11.4134 4.16959 10.7448 4.00503 10.1122C3.92639 9.80987 3.8435 9.66028 3.78795 9.60427C3.72916 9.54621 3.5764 9.46232 3.27307 9.3829C2.63963 9.21703 1.96975 9.20983 1.34186 9.02236C1.20416 8.98125 1.03352 8.91802 0.887011 8.80906C0.727557 8.69047 0.550312 8.47789 0.550312 8.16667C0.550312 7.85416 0.728987 7.64134 0.888757 7.5231C1.03571 7.41434 1.20688 7.35128 1.34512 7.31027C1.97383 7.12376 2.6441 7.11709 3.27839 6.95256C3.57721 6.87505 3.72814 6.79345 3.7868 6.73757C3.84361 6.67765 3.92534 6.52551 4.0028 6.2268C4.16721 5.59278 4.17398 4.92274 4.36056 4.29435C4.40159 4.15616 4.4647 3.98502 4.57355 3.8381C4.69195 3.6783 4.90477 3.5 5.21698 3.5C5.52849 3.5 5.74108 3.67761 5.85951 3.83703C5.96838 3.98357 6.03156 4.15425 6.07265 4.292C6.26005 4.92021 6.26715 5.59032 6.43313 6.22404C6.51259 6.52742 6.59633 6.67893 6.65342 6.73648C6.70931 6.79164 6.8588 6.87417 7.16074 6.95269C7.79363 7.11728 8.46253 7.12392 9.08986 7.31039C9.22794 7.35143 9.39897 7.41455 9.5458 7.52342C9.70552 7.64185 9.88364 7.85462 9.88364 8.16667C9.88364 8.47725 9.70709 8.6897 9.54764 8.80841C9.40131 8.91735 9.23093 8.98046 9.09366 9.02142C8.46705 9.20839 7.79855 9.21466 7.16653 9.38066C6.86252 9.4605 6.71236 9.54471 6.65624 9.60144L6.65175 9.60593ZM20.7999 21.1746C20.8802 21.254 21.0695 21.3528 21.4174 21.4432C22.1397 21.6311 22.9036 21.6385 23.6194 21.8513C23.7739 21.8972 23.9584 21.966 24.1146 22.0818C24.2836 22.2072 24.467 22.4281 24.467 22.75C24.467 23.0704 24.2852 23.291 24.1165 23.4166C23.961 23.5324 23.7772 23.6012 23.6236 23.647C22.9086 23.8603 22.1451 23.8674 21.4239 24.0568C21.0736 24.1488 20.8833 24.2496 20.8026 24.3311L20.7981 24.3356C20.7166 24.4163 20.6158 24.6066 20.5238 24.9569C20.3344 25.6782 20.3273 26.4417 20.114 27.1567C20.0682 27.3103 19.9994 27.494 19.8836 27.6496C19.758 27.8183 19.5374 28 19.217 28C18.8956 28 18.6747 27.8172 18.5493 27.6481C18.4336 27.492 18.3649 27.3078 18.3192 27.1536C18.1069 26.4381 18.1003 25.6744 17.9125 24.9525C17.8219 24.6039 17.7226 24.4144 17.6427 24.334C17.5592 24.2514 17.3663 24.151 17.0165 24.0594C16.2936 23.8701 15.5285 23.862 14.8121 23.6481C14.658 23.6021 14.474 23.5332 14.3182 23.4173C14.1494 23.2918 13.967 23.0711 13.967 22.75C13.967 22.4276 14.1509 22.2066 14.32 22.0815C14.4764 21.9658 14.661 21.897 14.8157 21.8511C15.5331 21.6383 16.2986 21.6309 17.0224 21.4431C17.3683 21.3534 17.5588 21.2554 17.6415 21.1756C17.7222 21.0915 17.8204 20.8997 17.91 20.5539C18.0976 19.8304 18.1052 19.0652 18.3181 18.3482C18.364 18.1935 18.4328 18.0089 18.5486 17.8527C18.6739 17.6835 18.8949 17.5 19.217 17.5C19.5383 17.5 19.7591 17.6828 19.8844 17.8515C20.0002 18.0074 20.0691 18.1915 20.115 18.3456C20.3289 19.0624 20.3368 19.8278 20.5263 20.551C20.6179 20.901 20.7182 21.0926 20.7999 21.1746ZM13.0257 11.4874C13.4841 11.0499 14.2079 11.0584 14.656 11.5065L15.2938 12.1443C15.7419 12.5924 15.7504 13.3162 15.3129 13.7747L3.2286 26.4391C2.7764 26.913 2.02276 26.9218 1.55958 26.4586L0.341709 25.2408C-0.12147 24.7776 -0.11264 24.0239 0.361265 23.5717L13.0257 11.4874Z" fill="rgba(0,0,0,0.12)" fill-rule="evenodd"/>
  <path d="M19.7497 2.82392C19.5716 1.62419 19.4171 0.583333 18.9253 0.583333C18.432 0.583333 18.2781 1.62904 18.1009 2.83264C17.9209 4.05522 17.717 5.44076 17.109 6.05871C16.4942 6.66681 15.1081 6.87072 13.8845 7.05074C12.6804 7.22787 11.6336 7.38186 11.6336 7.875C11.6336 8.36687 12.6734 8.52134 13.8728 8.6995C15.0978 8.8815 16.4893 9.08822 17.109 9.70455C17.7217 10.3172 17.9251 11.7041 18.1046 12.9271C18.2804 14.1256 18.4331 15.1667 18.9253 15.1667C19.4161 15.1667 19.5693 14.1315 19.7462 12.9372C19.9276 11.7118 20.1338 10.3189 20.7549 9.70455C21.3692 9.08351 22.7621 8.87728 23.9875 8.69586C25.1818 8.51904 26.217 8.36578 26.217 7.875C26.217 7.38194 25.1721 7.22791 23.9708 7.05082C22.7495 6.87078 21.3664 6.6669 20.7549 6.05871C20.1384 5.44222 19.9317 4.05009 19.7497 2.82392Z" fill="rgba(255,255,255,1.0)"/>
  <path d="M5.21698 4.08333C5.49235 4.08333 5.57888 4.66621 5.67862 5.33806C5.78055 6.02471 5.89629 6.80431 6.24152 7.14955C6.58398 7.49013 7.3585 7.60431 8.04244 7.70512C8.7152 7.8043 9.30031 7.89055 9.30031 8.16667C9.30031 8.4415 8.72062 8.52733 8.05181 8.62635C7.36559 8.72794 6.58554 8.84343 6.24152 9.19121C5.89374 9.53523 5.77826 10.3153 5.67666 11.0015C5.57764 11.6703 5.49181 12.25 5.21698 12.25C4.94137 12.25 4.85583 11.667 4.75736 10.9958C4.65688 10.311 4.54293 9.53428 4.19986 9.19121C3.85283 8.84607 3.07359 8.7303 2.38755 8.62839C1.71594 8.52862 1.13365 8.44212 1.13365 8.16667C1.13365 7.89051 1.71984 7.80427 2.39411 7.70508C3.07936 7.60427 3.85558 7.49008 4.19986 7.14955C4.5403 6.80349 4.65452 6.02761 4.75531 5.34296C4.85454 4.66893 4.94075 4.08333 5.21698 4.08333Z" fill="rgba(255,255,255,1.0)"/>
  <path d="M19.7446 19.5173C19.6306 18.7495 19.5317 18.0833 19.217 18.0833C18.9013 18.0833 18.8028 18.7526 18.6894 19.5229C18.5742 20.3054 18.4436 21.1921 18.0546 21.5876C17.6611 21.9767 16.7741 22.1073 15.9909 22.2225C15.2203 22.3358 14.5503 22.4344 14.5503 22.75C14.5503 23.0648 15.2158 23.1637 15.9833 23.2777C16.7674 23.3942 17.658 23.5265 18.0546 23.9209C18.4466 24.313 18.5769 25.2006 18.6917 25.9833C18.8042 26.7504 18.902 27.4167 19.217 27.4167C19.5311 27.4167 19.6292 26.7542 19.7423 25.9898C19.8584 25.2056 19.9904 24.3141 20.3879 23.9209C20.7811 23.5234 21.6725 23.3915 22.4568 23.2753C23.2211 23.1622 23.8836 23.0641 23.8836 22.75C23.8836 22.4344 23.2149 22.3359 22.4461 22.2225C21.6644 22.1073 20.7793 21.9768 20.3879 21.5876C19.9933 21.193 19.8611 20.3021 19.7446 19.5173Z" fill="rgba(255,255,255,1.0)"/>
  <path d="M14.2435 11.919C14.0195 11.6949 13.6576 11.6907 13.4284 11.9094L0.763966 23.9938C0.527013 24.2199 0.522598 24.5967 0.754188 24.8283L1.97206 26.0461C2.20365 26.2777 2.58047 26.2733 2.80657 26.0364L14.8909 13.372C15.1096 13.1428 15.1054 12.7808 14.8814 12.5568L14.2435 11.919Z" fill="rgba(255,255,255,1.0)"/>
</svg>
