<?xml version="1.0" encoding="UTF-8"?>
<svg xmlns="http://www.w3.org/2000/svg" width="26.8333" height="28.0" viewBox="0 0 26.8333 28.0">
  <path d="M16.3333 13.4167V13.3574L14.7763 5.77549C14.6438 5.12999 14.0756 4.66667 13.4167 4.66667C12.7577 4.66667 12.1896 5.12999 12.057 5.77549L10.5 13.3574V13.4167C10.5 15.0275 11.8058 16.3333 13.4167 16.3333C15.0275 16.3333 16.3333 15.0275 16.3333 13.4167Z" fill="rgba(255,255,255,1.0)"/>
  <path d="M1.42241 19.435C1.69243 19.9721 2.30651 20.1766 2.82866 20.0066C3.14495 19.9036 3.48344 19.8048 3.8426 19.7109C4.6097 19.5104 4.95404 18.6444 4.60531 17.9712C3.89917 16.608 3.5 15.0598 3.5 13.4167C3.5 7.93984 7.93984 3.5 13.4167 3.5C18.8935 3.5 23.3333 7.93984 23.3333 13.4167C23.3333 15.0598 22.9342 16.608 22.228 17.9712C21.8793 18.6444 22.2236 19.5104 22.9907 19.7109C23.3499 19.8048 23.6884 19.9036 24.0047 20.0066C24.5268 20.1766 25.1409 19.9721 25.4109 19.435C26.3211 17.6243 26.8333 15.5795 26.8333 13.4167C26.8333 6.00685 20.8265 0 13.4167 0C6.00685 0 0 6.00685 0 13.4167C0 15.5795 0.512189 17.6243 1.42241 19.435Z" fill="rgba(255,255,255,1.0)"/>
  <path d="M8.98969 28H12.0464V19.4309H9.07483L6.86869 21.3092V24.7456L8.98969 22.8856V28Z" fill="rgba(255,255,255,1.0)"/>
  <path d="M16.971 28H20.4794L18.3285 24.4529L20.2807 21.1739H16.7759L16.3476 22.1347L15.9308 21.1739H12.3812L14.3525 24.4933L12.208 28H15.7107L16.3614 26.685L16.971 28Z" fill="rgba(255,255,255,1.0)"/>
  <path d="M2.91667 13.4167C2.91667 7.61768 7.61768 2.91667 13.4167 2.91667C19.2157 2.91667 23.9167 7.61768 23.9167 13.4167C23.9167 15.1554 23.4941 16.7953 22.746 18.2395C22.5613 18.5961 22.7497 19.045 23.1383 19.1466C23.5074 19.243 23.857 19.345 24.1853 19.4519C24.4584 19.5408 24.7607 19.4296 24.8897 19.173C25.76 17.4417 26.25 15.4864 26.25 13.4167C26.25 6.32901 20.5043 0.583333 13.4167 0.583333C6.32901 0.583333 0.583333 6.32901 0.583333 13.4167C0.583333 15.4864 1.07331 17.4417 1.9436 19.173C2.07262 19.4296 2.3749 19.5408 2.64805 19.4519C2.97635 19.345 3.32594 19.243 3.69507 19.1466C4.08359 19.045 4.27206 18.5961 4.08735 18.2395C3.33926 16.7953 2.91667 15.1554 2.91667 13.4167Z" fill="rgba(255,255,255,1.0)"/>
  <path d="M12.6284 5.89283C12.7053 5.51861 13.0346 5.25 13.4167 5.25C13.7987 5.25 14.1281 5.51861 14.2049 5.89283L15.75 13.4167C15.75 14.7053 14.7053 15.75 13.4167 15.75C12.128 15.75 11.0833 14.7053 11.0833 13.4167L12.6284 5.89283Z" fill="rgba(255,255,255,1.0)"/>
  <path d="M9.57303 27.4167H11.463V20.0142H9.28953L7.45203 21.5787V23.4582L9.49953 21.6627H9.57303V27.4167Z" fill="rgba(255,255,255,1.0)"/>
  <path d="M17.3435 27.4167H19.4435L17.648 24.4557L19.2545 21.7572H17.1545L16.3775 23.5002H16.304L15.548 21.7572H13.406L15.0335 24.4977L13.2485 27.4167H15.3485L16.346 25.4007H16.409L17.3435 27.4167Z" fill="rgba(255,255,255,1.0)"/>
</svg>
