<?xml version="1.0" encoding="UTF-8"?>
<svg xmlns="http://www.w3.org/2000/svg" width="26.8334" height="26.8335" viewBox="0 0 26.8334 26.8335">
  <path d="M1.61342 8.37084C1.74296 8.0682 2.10347 7.94867 2.3963 8.09905L3.43204 8.63096C3.71444 8.77598 3.82851 9.11879 3.70736 9.41222C3.19784 10.6463 2.91675 11.9986 2.91675 13.4167C2.91675 19.2157 7.61776 23.9167 13.4167 23.9167C19.2157 23.9167 23.9167 19.2157 23.9167 13.4167C23.9167 7.61768 19.2157 2.91667 13.4167 2.91667C11.8631 2.91667 10.3882 3.25412 9.06142 3.85973C8.76684 3.9942 8.41292 3.88578 8.26205 3.59925L7.72114 2.57203C7.57021 2.28539 7.67971 1.92935 7.973 1.79177C9.62563 1.01653 11.4706 0.583333 13.4167 0.583333C20.5044 0.583333 26.2501 6.32901 26.2501 13.4167C26.2501 20.5043 20.5044 26.25 13.4167 26.25C6.32909 26.25 0.583415 20.5043 0.583415 13.4167C0.583415 11.6253 0.950449 9.91965 1.61342 8.37084Z" fill="rgba(255,255,255,1.0)"/>
  <path d="M7.9263 7.92622C7.67914 8.17338 7.63983 8.56025 7.83222 8.85207L11.7002 14.7192C12.5339 15.5529 13.8856 15.5529 14.7193 14.7192C15.553 13.8855 15.553 12.5338 14.7193 11.7001L8.85214 7.83214C8.56032 7.63975 8.17345 7.67907 7.9263 7.92622Z" fill="rgba(255,255,255,1.0)"/>
  <path d="M7.72527 1.26365C9.4538 0.452809 11.3832 0 13.4167 0C20.8266 0 26.8334 6.00685 26.8334 13.4167C26.8334 20.8265 20.8266 26.8333 13.4167 26.8333C6.00693 26.8333 8.13901e-05 20.8265 8.13901e-05 13.4167C8.13901e-05 11.5449 0.383697 9.76132 1.07715 8.14129C1.34701 7.51085 2.08565 7.28376 2.66279 7.58015L3.69853 8.11205C4.26849 8.40475 4.47578 9.07963 4.24654 9.63485C3.76567 10.7995 3.50008 12.0763 3.50008 13.4167C3.50008 18.8935 7.93992 23.3333 13.4167 23.3333C18.8936 23.3333 23.3334 18.8935 23.3334 13.4167C23.3334 7.93984 18.8936 3.5 13.4167 3.5C11.9483 3.5 10.5559 3.8188 9.30365 4.3904C8.74667 4.64464 8.05048 4.44947 7.7459 3.87104L7.205 2.84382C6.90742 2.2787 7.11473 1.55005 7.72527 1.26365ZM11.2458 15.0897L7.34519 9.17314C7.00038 8.65011 7.07084 7.95672 7.51382 7.51374C7.9568 7.07076 8.65018 7.0003 9.17322 7.34512L15.0898 11.2457L15.1317 11.2876C16.1932 12.3491 16.1932 14.0702 15.1317 15.1317C14.0702 16.1932 12.3492 16.1932 11.2877 15.1317L11.2458 15.0897ZM8.26205 3.59925C8.41293 3.88578 8.76684 3.9942 9.06142 3.85973C10.3882 3.25412 11.8631 2.91667 13.4167 2.91667C19.2157 2.91667 23.9167 7.61768 23.9167 13.4167C23.9167 19.2157 19.2157 23.9167 13.4167 23.9167C7.61776 23.9167 2.91675 19.2157 2.91675 13.4167C2.91675 11.9986 3.19785 10.6463 3.70736 9.41223C3.82851 9.11879 3.71444 8.77598 3.43204 8.63096L2.3963 8.09905C2.10347 7.94867 1.74296 8.06821 1.61342 8.37084C0.950449 9.91966 0.583415 11.6253 0.583415 13.4167C0.583415 20.5043 6.32909 26.25 13.4167 26.25C20.5044 26.25 26.2501 20.5043 26.2501 13.4167C26.2501 6.32901 20.5044 0.583333 13.4167 0.583333C11.4706 0.583333 9.62563 1.01653 7.973 1.79177C7.67971 1.92935 7.57021 2.28539 7.72115 2.57203L8.26205 3.59925ZM11.7002 14.7192L7.83222 8.85207C7.63983 8.56025 7.67914 8.17338 7.9263 7.92622C8.17346 7.67907 8.56032 7.63975 8.85214 7.83214L14.7193 11.7001C15.553 12.5338 15.553 13.8855 14.7193 14.7192C13.8856 15.5529 12.5339 15.5529 11.7002 14.7192Z" fill="rgba(255,255,255,1.0)"/>
</svg>
