<?xml version="1.0" encoding="UTF-8"?>
<svg xmlns="http://www.w3.org/2000/svg" width="22.0" height="22.0" viewBox="0 0 22.0 22.0">
  <path d="M16.0419 1.83301C17.3074 1.83318 18.3329 2.85946 18.3329 4.125V19.1572C18.3329 19.929 17.4378 20.3555 16.8388 19.8691L11.289 15.3594C11.1206 15.2228 10.8792 15.2228 10.7108 15.3594L5.16104 19.8691C4.56198 20.3555 3.66689 19.929 3.66689 19.1572V4.125C3.66689 2.85946 4.69241 1.83318 5.95791 1.83301H16.0419ZM5.95791 3.66699C5.70493 3.66717 5.4999 3.87198 5.4999 4.125V17.2314L9.55459 13.9365C10.3965 13.2525 11.6033 13.2525 12.4452 13.9365L16.4999 17.2314V4.125C16.4999 3.87198 16.2949 3.66717 16.0419 3.66699H5.95791Z" fill="rgba(255,255,255,1.0)"/>
</svg>
