<?xml version="1.0" encoding="UTF-8"?>
<svg xmlns="http://www.w3.org/2000/svg" width="24.0" height="24.0" viewBox="0 0 24.0 24.0">
  <path d="M9.93951 3.6466C10.1348 3.45139 10.4513 3.45136 10.6465 3.6466L11.3536 4.35363C11.5487 4.54889 11.5487 4.86543 11.3536 5.06066L5.41412 11.0001H21.5001C21.7761 11.0002 22.0001 11.224 22.0001 11.5001V12.5001C22 12.7762 21.7761 13 21.5001 13.0001H5.41412L11.3536 18.9396C11.5487 19.1348 11.5488 19.4514 11.3536 19.6466L10.6465 20.3536C10.4513 20.5488 10.1348 20.5487 9.93951 20.3536L2.29302 12.7071C1.9025 12.3166 1.9025 11.6836 2.29302 11.2931L9.93951 3.6466Z" fill="rgba(246,246,246,1.0)"/>
</svg>
