<?xml version="1.0" encoding="UTF-8"?>
<svg xmlns="http://www.w3.org/2000/svg" width="23.9422" height="27.8576" viewBox="0 0 23.9422 27.8576">
  <path d="M15.4986 19.824L5.55219 9.87757L0.356903 13.9708C-0.30412 14.4916 0.0074839 15.5524 0.845148 15.633L8.56489 16.3756L4.13078 26.5452C3.74291 27.4348 4.80165 28.2519 5.56393 27.6514L15.4986 19.824Z" fill="rgba(255,255,255,1.0)"/>
  <path d="M23.6004 21.1553L19.2855 16.8404L23.0346 13.8866C23.6957 13.3658 23.3841 12.305 22.5464 12.2244L14.8266 11.4818L19.2608 1.31219C19.6486 0.42263 18.5899 -0.394552 17.8276 0.206034L9.33904 6.89399L4.592 2.14694C4.13638 1.69133 3.39769 1.69133 2.94208 2.14694L2.11712 2.9719C1.66151 3.42751 1.66151 4.1662 2.11712 4.62181L21.1255 23.6302C21.5811 24.0858 22.3198 24.0858 22.7754 23.6302L23.6004 22.8052C24.056 22.3496 24.056 21.6109 23.6004 21.1553Z" fill="rgba(255,255,255,1.0)"/>
  <path d="M0.717741 14.429L5.50597 10.6565L14.6217 19.7722L5.20275 27.1931C4.9169 27.4184 4.51987 27.1119 4.66532 26.7783L9.42071 15.8719L0.900834 15.0523C0.586708 15.0221 0.469859 14.6243 0.717741 14.429Z" fill="rgba(255,255,255,1.0)"/>
  <path d="M18.4085 16.7886L23.1877 21.5678C23.4155 21.7956 23.4155 22.1649 23.1877 22.3927L22.3628 23.2177C22.135 23.4455 21.7656 23.4455 21.5378 23.2177L2.52943 4.20933C2.30162 3.98152 2.30162 3.61217 2.52943 3.38437L3.35439 2.55941C3.58219 2.3316 3.95154 2.3316 4.17935 2.55941L9.29283 7.67289L18.1884 0.664228C18.4743 0.439009 18.8713 0.74545 18.7259 1.07904L13.9705 11.9855L22.4904 12.805C22.8045 12.8353 22.9213 13.233 22.6734 13.4284L18.4085 16.7886Z" fill="rgba(255,255,255,1.0)"/>
</svg>
