<?xml version="1.0" encoding="UTF-8"?>
<svg xmlns="http://www.w3.org/2000/svg" width="26.0" height="26.0" viewBox="0 0 26.0 26.0">
  <path d="M13 3.25C18.3848 3.25 22.75 7.61522 22.75 13C22.75 18.3848 18.3848 22.75 13 22.75C7.61522 22.75 3.25 18.3848 3.25 13C3.25 7.61522 7.61522 3.25 13 3.25ZM6.8584 8.27441C5.85041 9.58251 5.25 11.2209 5.25 13C5.25 17.2802 8.71979 20.75 13 20.75C14.763 20.75 16.3873 20.1595 17.6895 19.168L17.4775 18.9541L6.8584 8.27441ZM13 5.25C11.2199 5.25 9.58091 5.85135 8.27246 6.86035L18.8955 17.5439L19.1113 17.7607C20.1364 16.4467 20.75 14.7958 20.75 13C20.75 8.71979 17.2802 5.25 13 5.25Z" fill="rgba(255,255,255,1.0)"/>
</svg>
