<?xml version="1.0" encoding="UTF-8"?>
<svg xmlns="http://www.w3.org/2000/svg" width="30.002" height="25.295" viewBox="0 0 30.002 25.295">
  <path d="M15.0128 3.4639C19.8332 3.4639 23.7761 7.26232 24.0737 12.0604L22.6794 12.0604C21.7537 12.0604 21.2107 13.1135 21.7407 13.8809L24.8214 18.3412C25.2752 18.9983 26.2361 19.0015 26.6943 18.3476L29.7894 13.9303C30.3225 13.1695 29.7929 12.1163 28.8709 12.1035L27.5055 12.0846C27.2162 5.36111 21.7337 2.03252e-05 15.0128 2.03252e-05C13.0381 2.03252e-05 11.6471 0.246978 10.0431 1.06469C9.45981 1.36206 9.27378 2.07834 9.56877 2.62792L10.103 3.62322C10.397 4.1709 11.0449 4.36387 11.5781 4.14339C12.6368 3.70554 13.7962 3.4639 15.0128 3.4639Z" fill="rgba(255,255,255,1.0)"/>
  <path d="M3.37377 6.71137L0.199855 11.4362C-0.316461 12.2048 0.228045 13.2443 1.14696 13.2443H2.43768C2.46825 13.9132 2.55026 14.5688 2.67989 15.2072C3.84914 20.9648 8.88825 25.295 14.9289 25.295L15.0146 25.2949C16.9295 25.289 18.3533 25.0826 19.9479 24.2846C20.5426 23.987 20.7241 23.2582 20.4201 22.7086L19.8378 21.656C19.5398 21.1172 18.8978 20.9303 18.3696 21.1492C17.3092 21.5886 16.1478 21.8311 14.9289 21.8311C10.5448 21.8311 6.88534 18.6886 6.03596 14.5095C5.9522 14.0974 5.89573 13.675 5.8686 13.2443H7.37751C8.28742 13.2443 8.83375 12.2229 8.33565 11.4529L5.27901 6.72811C4.83176 6.03676 3.83283 6.02799 3.37377 6.71137Z" fill="rgba(255,255,255,1.0)"/>
  <path d="M15.0129 2.88057C20.3457 2.88057 24.6688 7.25169 24.6688 12.6437L22.6796 12.6437C22.2203 12.6437 21.9509 13.1662 22.2139 13.5469L25.2945 18.0072C25.5197 18.3332 25.9964 18.3348 26.2237 18.0104L29.3188 13.593C29.5833 13.2156 29.3205 12.6931 28.8631 12.6868L26.9408 12.6602L26.9408 12.6437C26.9408 5.98298 21.6005 0.583354 15.0129 0.583354C13.1012 0.583354 11.8052 0.81975 10.303 1.58557C10.0257 1.72692 9.92786 2.07372 10.076 2.34967L10.6102 3.34497C10.7543 3.61337 11.0803 3.71908 11.3598 3.60348C12.4867 3.13745 13.7201 2.88057 15.0129 2.88057Z" fill="rgba(255,255,255,1.0)"/>
  <path d="M3.85116 7.03913L0.677245 11.764C0.421102 12.1453 0.691228 12.6609 1.14711 12.6609H3.00123C3.00187 13.493 3.08585 14.3053 3.24517 15.0899C4.36042 20.5816 9.16774 24.7117 14.9291 24.7117C14.9572 24.7117 14.9852 24.7117 15.013 24.7116C16.878 24.7058 18.2049 24.5061 19.6921 23.7618C19.9729 23.6213 20.0697 23.2698 19.9167 22.9933L19.3345 21.9407C19.1884 21.6766 18.8654 21.5742 18.5885 21.689C17.4599 22.1566 16.2243 22.4145 14.9291 22.4145C10.2657 22.4145 6.37439 19.0718 5.47098 14.6269C5.34193 13.9919 5.27385 13.3344 5.27321 12.6609H7.37765C7.82906 12.6609 8.10009 12.1542 7.85298 11.7723L4.79635 7.04743C4.57447 6.70446 4.0789 6.7001 3.85116 7.03913Z" fill="rgba(255,255,255,1.0)"/>
</svg>
